<?xml version="1.0" encoding="utf-8"?>
<svg width="59px" height="66px" viewBox="0 0 59 66" version="1.1" xmlns:xlink="http://www.w3.org/1999/xlink" xmlns="http://www.w3.org/2000/svg">
  <desc>Created with Lunacy</desc>
  <path d="M43.9215 65.7623L43.9215 48.5911C52.6898 44.5722 58.5353 35.8039 58.5353 25.5742C58.5353 11.3257 47.2096 0 32.9611 0C19.0779 0 8.11753 10.9604 7.38684 24.4782L0.445257 33.6119C-0.650781 34.7079 0.445257 36.5346 1.90664 36.5346L7.38684 36.5346L7.38684 47.495C7.38684 51.5138 10.675 54.8019 14.6938 54.8019L18.3472 54.8019L18.3472 65.7623L43.9215 65.7623ZM38.2791 12.606L45.1037 6.4639L45.1037 21.478L38.2791 27.6201L38.2791 12.606ZM28.0423 10.5587C25.3807 10.5587 22.5143 11.1046 20.5352 12.606L20.5352 32.6157C20.5352 32.957 20.8764 33.2982 21.2177 33.2982C21.3542 33.2982 21.4224 33.2026 21.5589 33.2026C23.4015 32.3154 26.0631 31.7149 28.0423 31.7149C30.7039 31.7149 33.5702 32.2608 35.5493 33.7623C37.392 32.6021 40.736 31.7149 43.0564 31.7149C45.3085 31.7149 47.6288 32.138 49.5397 33.1617C49.6437 33.2137 49.7081 33.2102 49.7933 33.2056C49.8199 33.2042 49.8485 33.2026 49.881 33.2026C50.2222 33.2026 50.5634 32.8614 50.5634 32.5202L50.5634 12.606C49.7445 11.9918 48.8573 11.5823 47.8336 11.2411L47.8336 29.6675C46.3322 29.1898 44.6943 28.985 43.0564 28.985C40.736 28.985 37.392 29.8722 35.5493 31.0324L35.5493 12.606C33.5702 11.1046 30.7039 10.5587 28.0423 10.5587Z" id="Shape" fill="#D3D3D3" fill-rule="evenodd" stroke="none" />
</svg>